<svg xmlns="http://www.w3.org/2000/svg" viewBox="0 0 24 24" width="64" height="64">
  <defs>
    <linearGradient id="safetyGradient" x1="0%" y1="0%" x2="100%" y2="100%">
      <stop offset="0%" stop-color="#6C63FF" />
      <stop offset="100%" stop-color="#3B82F6" />
    </linearGradient>
  </defs>
  <!-- Background circle -->
  <circle cx="12" cy="12" r="11" fill="rgba(108, 99, 255, 0.1)" />
  
  <!-- Shield Outline -->
  <path d="M12,3 L4,7 C4,7 4,13 4,15 C4,18.5 7,20.5 12,21 C17,20.5 20,18.5 20,15 C20,13 20,7 20,7 L12,3 Z" fill="none" stroke="url(#safetyGradient)" stroke-width="1.5" />
  
  <!-- Shield Inner Pattern -->
  <path d="M12,3 L6,6 C6,6 6,12 6,14 C6,17 8,18.5 12,19 C16,18.5 18,17 18,14 C18,12 18,6 18,6 L12,3 Z" fill="none" stroke="url(#safetyGradient)" stroke-width="1" opacity="0.5" />
  
  <!-- Check Mark -->
  <path d="M9,12 L11,14 L15,10" fill="none" stroke="url(#safetyGradient)" stroke-width="2" stroke-linecap="round" stroke-linejoin="round" />
  
  <!-- Safety Glow Effect -->
  <circle cx="12" cy="12" r="6" fill="url(#safetyGradient)" opacity="0.15">
    <animate attributeName="opacity" values="0.15;0.25;0.15" dur="2s" repeatCount="indefinite" />
  </circle>
  
  <!-- Lock Icon in Shield -->
  <rect x="11" y="12" width="2" height="3" rx="0.5" fill="url(#safetyGradient)" />
  <path d="M9,12 L9,10 C9,8.34 10.34,7 12,7 C13.66,7 15,8.34 15,10 L15,12" fill="none" stroke="url(#safetyGradient)" stroke-width="1.5" stroke-linecap="round" />
</svg>
